<?xml version="1.0" standalone="no"?>
<!DOCTYPE svg PUBLIC "-//W3C//DTD SVG 20010904//EN"
 "http://www.w3.org/TR/2001/REC-SVG-20010904/DTD/svg10.dtd">
<svg version="1.0" xmlns="http://www.w3.org/2000/svg"
 width="512.000000pt" height="512.000000pt" viewBox="0 0 512.000000 512.000000"
 preserveAspectRatio="xMidYMid meet">

<g transform="translate(0.000000,512.000000) scale(0.100000,-0.100000)"
fill="#000000" stroke="none">
<path d="M1650 5114 c-457 -55 -810 -222 -1116 -528 -274 -274 -439 -592 -510
-981 -22 -123 -26 -457 -6 -580 124 -766 688 -1353 1452 -1512 111 -23 150
-26 340 -27 182 0 233 3 332 21 420 79 806 303 1072 622 199 238 341 542 398
849 32 169 31 476 0 646 -53 280 -170 548 -339 773 -273 365 -693 620 -1148
699 -79 14 -407 26 -475 18z m302 -609 c413 -48 760 -287 945 -651 93 -182
133 -348 133 -549 0 -207 -43 -386 -137 -567 -268 -521 -888 -773 -1448 -591
-694 225 -1034 1015 -720 1672 64 132 122 216 219 319 204 215 489 350 781
372 55 4 100 8 100 9 0 0 57 -6 127 -14z"/>
<path d="M3555 2140 c-11 -5 -145 -134 -299 -288 -274 -275 -278 -280 -283
-327 l-6 -47 739 -739 739 -739 45 0 45 0 292 293 293 292 0 45 0 45 -738 737
c-700 701 -739 738 -772 737 -19 0 -44 -4 -55 -9z"/>
</g>
</svg>
